<svg xmlns="http://www.w3.org/2000/svg" viewBox="0 0 256 256" width="256" height="256" role="img" aria-labelledby="title">
  <title id="title">Коралловидная форма — канделябр</title>
  
<defs>
  <linearGradient id="g1" x1="0" y1="0" x2="1" y2="1">
    <stop offset="0" stop-color="#43B58C"/>
    <stop offset=".55" stop-color="#16866B"/>
    <stop offset="1" stop-color="#0B5D4B"/>
  </linearGradient>
  <linearGradient id="g2" x1="0" y1="0" x2="1" y2="1">
    <stop offset="0" stop-color="#9BCB55"/>
    <stop offset=".55" stop-color="#43B58C"/>
    <stop offset="1" stop-color="#16866B"/>
  </linearGradient>
  <linearGradient id="g3" x1="1" y1="0" x2="0" y2="1">
    <stop offset="0" stop-color="#A9D45A"/>
    <stop offset=".5" stop-color="#6F8F3D"/>
    <stop offset="1" stop-color="#16866B"/>
  </linearGradient>
  <linearGradient id="g4" x1="0" y1="0" x2="0" y2="1">
    <stop offset="0" stop-color="#9BCB55"/>
    <stop offset=".55" stop-color="#6F8F3D"/>
    <stop offset="1" stop-color="#0B5D4B"/>
  </linearGradient>
</defs>

  <ellipse cx="128" cy="236" rx="43" ry="8" fill="#4A2630" opacity=".16"/>
<path d="M128 236 L128 163
         M128 190 C111 190 101 179 101 164 L101 144
         M128 177 C147 177 157 165 157 150 L157 128
         M101 164 C89 164 83 155 83 143 L83 130
         M157 151 C170 151 177 142 177 129 L177 117"
      fill="none" stroke="#D56B62" stroke-width="13" stroke-linecap="round" stroke-linejoin="round"/>
<path d="M128 226 L128 170
         M101 158 L101 147
         M157 145 L157 131"
      fill="none" stroke="#F1A08A" stroke-width="4" stroke-linecap="round" opacity=".65"/>
<g fill="#B84F6A">
  <circle cx="101" cy="144" r="7"/>
  <circle cx="157" cy="128" r="7"/>
  <circle cx="83" cy="130" r="7"/>
  <circle cx="177" cy="117" r="7"/>
  <circle cx="128" cy="163" r="7"/>
</g>
</svg>
